<?xml version="1.0" encoding="iso-8859-1"?>
<!-- Generator: Adobe Illustrator 19.0.0, SVG Export Plug-In . SVG Version: 6.00 Build 0)  -->
<svg version="1.1" id="Capa_1" xmlns="http://www.w3.org/2000/svg" xmlns:xlink="http://www.w3.org/1999/xlink" x="0px" y="0px"
	 viewBox="0 0 491.1 491.1" style="enable-background:new 0 0 491.1 491.1;" xml:space="preserve">
<g>
	<g>
		<g>
			<path d="M469.2,432.2H20.9C9.4,432.2,0,422.8,0,411.3V79.8c0-11.5,9.4-20.9,20.9-20.9h449.3c11.5,0,20.9,9.4,20.9,20.9v332.6
				C490.1,422.8,480.7,432.2,469.2,432.2z M40.7,391.6h408.7v-292H40.7V391.6z"/>
		</g>
		<g>
			<path d="M308.7,351.9H181.5c-11.5,0-20.9-9.4-20.9-20.9s9.4-20.9,20.9-20.9h127.2c11.5,0,20.9,9.4,20.9,20.9
				S320.1,351.9,308.7,351.9z"/>
		</g>
		<g>
			<path d="M133.7,162.1c5.9,0,10.7-4.8,10.7-10.7s-4.8-10.7-10.7-10.7h-42c-5.9,0-10.7,4.8-10.7,10.7v106.5
				c0,5.9,4.8,10.7,10.7,10.7h42c5.9,0,10.7-4.8,10.7-10.7c0-5.9-4.8-10.7-10.7-10.7h-31.4v-31.9h31.4c5.9,0,10.7-4.8,10.7-10.7
				s-4.8-10.7-10.7-10.7h-31.4V162h31.4V162.1z"/>
			<path d="M399.5,140.7h-70.9c-5.9,0-10.7,4.8-10.7,10.7s4.8,10.7,10.7,10.7h24.8v95.8c0,5.9,4.8,10.7,10.7,10.7
				s10.7-4.8,10.7-10.7v-95.8h24.8c5.9,0,10.7-4.8,10.7-10.7C410.2,145.5,405.4,140.7,399.5,140.7z"/>
			<path d="M259,143c-4.6-3.6-11.3-2.8-15,1.9l-33,42.4l-33-42.4c-3.6-4.6-10.3-5.5-15-1.9c-4.6,3.6-5.5,10.3-1.9,15l36.3,46.7
				l-36.3,46.7c-3.6,4.6-2.8,11.3,1.9,15c1.9,1.5,4.2,2.2,6.5,2.2c3.2,0,6.3-1.4,8.4-4.1l33-42.4l33,42.4c2.1,2.7,5.2,4.1,8.4,4.1
				c2.3,0,4.6-0.7,6.5-2.2c4.6-3.6,5.5-10.3,1.9-15l-36.2-46.8l36.3-46.7C264.4,153.3,263.6,146.6,259,143z"/>
			<path d="M292.1,140.7c-5.9,0-10.7,4.8-10.7,10.7v106.5c0,5.9,4.8,10.7,10.7,10.7c5.9,0,10.7-4.8,10.7-10.7V151.4
				C302.8,145.5,298,140.7,292.1,140.7z"/>
		</g>
	</g>
</g>
<g>
</g>
<g>
</g>
<g>
</g>
<g>
</g>
<g>
</g>
<g>
</g>
<g>
</g>
<g>
</g>
<g>
</g>
<g>
</g>
<g>
</g>
<g>
</g>
<g>
</g>
<g>
</g>
<g>
</g>
</svg>
