<?xml version="1.0" standalone="no"?>
<!DOCTYPE svg PUBLIC "-//W3C//DTD SVG 20010904//EN"
 "http://www.w3.org/TR/2001/REC-SVG-20010904/DTD/svg10.dtd">
<svg version="1.0" xmlns="http://www.w3.org/2000/svg"
 width="240.000000pt" height="230.000000pt" viewBox="0 0 240.000000 230.000000"
 preserveAspectRatio="xMidYMid meet">
<metadata>
Created by potrace 1.14, written by Peter Selinger 2001-2017
</metadata>
<g transform="translate(0.000000,230.000000) scale(0.100000,-0.100000)"
fill="#000000" stroke="none">
<path d="M994 1717 c-107 -36 -172 -75 -250 -152 -81 -80 -121 -146 -159 -260
-25 -73 -27 -90 -23 -200 4 -106 8 -129 37 -199 80 -198 234 -331 439 -381 91
-22 230 -16 322 13 411 134 563 635 295 975 -60 75 -160 148 -260 188 -72 29
-92 33 -205 36 -110 3 -133 0 -196 -20z m344 -30 c293 -85 473 -386 407 -681
-49 -223 -210 -390 -430 -446 -95 -24 -172 -25 -268 -4 -273 61 -457 293 -457
575 0 262 183 496 440 563 87 23 214 20 308 -7z"/>
<path d="M1129 1469 c-15 -15 -20 -30 -17 -56 4 -29 0 -37 -21 -48 -36 -19
-88 -75 -100 -108 -6 -16 -11 -81 -11 -145 0 -122 -11 -162 -46 -162 -8 0 -19
-11 -26 -25 -20 -44 1 -55 111 -55 l97 0 -4 -34 c-3 -27 1 -37 23 -55 35 -26
45 -26 80 0 22 18 26 28 23 55 l-4 34 98 0 c80 0 99 3 106 16 11 19 4 54 -10
54 -5 0 -20 11 -33 25 -23 23 -25 31 -25 132 0 59 -5 125 -11 146 -12 43 -59
101 -99 122 -22 11 -26 19 -22 48 3 28 -1 38 -23 56 -35 27 -59 27 -86 0z
m132 -142 c19 -12 44 -42 57 -67 19 -38 22 -60 22 -151 0 -59 4 -119 10 -133
l10 -26 -186 0 c-146 0 -183 3 -177 13 4 6 10 74 13 149 6 151 13 170 80 216
46 31 124 31 171 -1z"/>
</g>
</svg>
