<?xml version="1.0" standalone="no"?>
<!DOCTYPE svg PUBLIC "-//W3C//DTD SVG 20010904//EN"
 "http://www.w3.org/TR/2001/REC-SVG-20010904/DTD/svg10.dtd">
<svg version="1.0" xmlns="http://www.w3.org/2000/svg"
 width="278.000000pt" height="272.000000pt" viewBox="0 0 278.000000 272.000000"
 preserveAspectRatio="xMidYMid meet">
<metadata>
Created by potrace 1.14, written by Peter Selinger 2001-2017
</metadata>
<g transform="translate(0.000000,272.000000) scale(0.100000,-0.100000)"
fill="#000000" stroke="none">
<path d="M1140 1725 c0 -92 -2 -106 -17 -111 -43 -14 -68 -31 -85 -59 -17 -27
-18 -51 -16 -273 l3 -244 38 -34 c20 -19 51 -37 67 -41 25 -4 30 -10 30 -34 0
-22 5 -29 20 -29 11 0 20 5 20 10 0 15 333 13 347 -1 18 -18 43 -3 43 25 0 19
7 26 31 31 16 4 46 22 65 41 l34 35 0 252 0 253 -27 26 c-16 15 -40 31 -55 37
l-28 11 0 105 0 105 -100 0 -100 0 0 -30 c0 -18 -7 -33 -18 -39 -27 -14 -52 5
-52 39 l0 30 -100 0 -100 0 0 -105z m169 -26 c47 -11 111 -6 170 13 41 13 56
0 65 -54 l7 -38 -80 0 c-82 0 -98 7 -93 43 3 13 -4 17 -23 17 -20 0 -26 -4
-21 -15 13 -34 -4 -45 -70 -45 -63 0 -64 0 -64 28 0 36 27 75 48 67 8 -3 36
-10 61 -16z"/>
</g>
</svg>
