<?xml version='1.0' encoding='iso-8859-1'?>
<!DOCTYPE svg PUBLIC '-//W3C//DTD SVG 1.1//EN' 'http://www.w3.org/Graphics/SVG/1.1/DTD/svg11.dtd'>
<svg version="1.1" xmlns="http://www.w3.org/2000/svg" viewBox="0 0 469.474 469.474" xmlns:xlink="http://www.w3.org/1999/xlink" enable-background="new 0 0 469.474 469.474">
  <g>
    <path d="m347.981,89.996h-39.748v-66.747c0.001-12.819-10.429-23.249-23.249-23.249-12.819,0-23.249,10.43-23.249,23.249v66.747h-53.997v-66.747c0.001-12.819-10.429-23.249-23.248-23.249-12.82,0-23.25,10.43-23.25,23.249v66.747h-39.748c-4.142,0-7.5,3.358-7.5,7.5v89.995c0,4.142 3.358,7.5 7.5,7.5 30.007,0 54.419,24.412 54.419,54.419v20.577c0,4.142 3.358,7.5 7.5,7.5h14.067v62.389l-18.854,18.854c-2.489-1.115-5.239-1.748-8.137-1.748-11.028,0-20,8.972-20,20s8.972,20 20,20 20-8.972 20-20c0-2.633-0.524-5.143-1.453-7.448l21.248-21.249c1.407-1.407 2.197-3.314 2.197-5.303v-65.495h15.63v153.461c-7.318,2.975-12.496,10.153-12.496,18.526 0,11.028 8.972,20 20,20s20-8.972 20-20c0-8.376-5.182-15.556-12.504-18.529v-153.458h15.63v91.845c0,1.989 0.79,3.897 2.197,5.303l21.253,21.253c-0.927,2.302-1.451,4.81-1.451,7.44 0,11.028 8.972,20 20,20s20-8.972 20-20-8.972-20-20-20c-2.902,0-5.654,0.635-8.145,1.751l-18.855-18.854v-88.739h12.324c4.142,0 7.5-3.358 7.5-7.5v-20.576c0-30.007 24.412-54.419 54.419-54.419 4.142,0 7.5-3.358 7.5-7.5v-89.995c0-4.142-3.358-7.5-7.5-7.5zm-177.494,291.985c-2.757,0-5-2.243-5-5s2.243-5 5-5 5,2.243 5,5-2.244,5-5,5zm65.126,72.493c-2.757,0-5-2.243-5-5s2.243-5 5-5 5,2.243 5,5-2.244,5-5,5zm70.125-51.145c0,2.757-2.243,5-5,5s-5-2.243-5-5 2.243-5 5-5 5,2.243 5,5zm-29.003-380.08c0-4.548 3.701-8.249 8.249-8.249 4.549,0 8.25,3.701 8.25,8.249v66.747h-16.499v-66.747zm-100.495,0c0-4.548 3.701-8.249 8.25-8.249 4.548,0 8.249,3.701 8.249,8.249v66.747h-16.499v-66.747zm164.241,81.747v11.999h-211.489v-11.999h211.489zm-61.919,144.414v13.077h-87.651v-13.077c0-35.745-27.154-65.267-61.919-69.017v-48.399h211.489v48.399c-34.765,3.75-61.919,33.272-61.919,69.017z"/>
    <path d="m270.735,145.493h-71.997c-4.142,0-7.5,3.358-7.5,7.5s3.358,7.5 7.5,7.5h71.997c4.142,0 7.5-3.358 7.5-7.5s-3.358-7.5-7.5-7.5z"/>
    <path d="m270.735,169.492h-71.997c-4.142,0-7.5,3.358-7.5,7.5s3.358,7.5 7.5,7.5h71.997c4.142,0 7.5-3.358 7.5-7.5s-3.358-7.5-7.5-7.5z"/>
    <path d="m270.735,193.49h-71.997c-4.142,0-7.5,3.358-7.5,7.5s3.358,7.5 7.5,7.5h71.997c4.142,0 7.5-3.358 7.5-7.5s-3.358-7.5-7.5-7.5z"/>
  </g>
</svg>
