<?xml version="1.0" standalone="no"?>
<!DOCTYPE svg PUBLIC "-//W3C//DTD SVG 20010904//EN"
 "http://www.w3.org/TR/2001/REC-SVG-20010904/DTD/svg10.dtd">
<svg version="1.0" xmlns="http://www.w3.org/2000/svg"
 width="234.000000pt" height="236.000000pt" viewBox="0 0 234.000000 236.000000"
 preserveAspectRatio="xMidYMid meet">
<metadata>
Created by potrace 1.14, written by Peter Selinger 2001-2017
</metadata>
<g transform="translate(0.000000,236.000000) scale(0.100000,-0.100000)"
fill="#000000" stroke="none">
<path d="M1045 2300 c-161 -19 -350 -88 -487 -181 -86 -58 -228 -198 -287
-283 -159 -230 -228 -491 -201 -764 15 -148 47 -259 115 -397 110 -224 276
-390 501 -503 174 -88 319 -117 539 -109 122 4 167 10 240 31 191 56 389 176
516 314 199 217 299 474 299 772 0 319 -107 579 -329 800 -136 136 -252 209
-426 268 -145 50 -326 69 -480 52z m543 -650 c63 -39 73 -69 70 -212 -3 -125
-3 -127 -33 -159 -55 -58 -61 -59 -445 -59 -384 0 -390 1 -445 59 -30 32 -30
34 -33 159 -3 143 7 173 70 212 31 19 51 20 408 20 357 0 377 -1 408 -20z m8
-556 c59 -43 69 -68 72 -175 4 -92 2 -102 -22 -143 -45 -76 -43 -76 -468 -76
-422 0 -423 0 -465 75 -19 33 -23 56 -23 127 0 94 9 130 43 167 46 50 55 51
459 48 363 -2 378 -3 404 -23z"/>
<path d="M825 1601 c-46 -20 -60 -49 -64 -137 -3 -92 8 -135 43 -159 30 -22
703 -22 745 -1 33 18 51 54 51 104 l-1 37 -13 -38 c-18 -49 -32 -65 -74 -83
-47 -19 -86 -18 -132 6 -52 27 -74 69 -67 134 4 41 10 55 41 83 32 30 42 33
96 33 52 0 64 -4 95 -31 19 -17 39 -45 45 -63 9 -28 9 -26 6 18 -3 36 -11 55
-30 75 l-26 26 -348 2 c-191 1 -356 -2 -367 -6z"/>
<path d="M785 1025 c-23 -22 -25 -32 -25 -119 0 -93 0 -95 31 -120 l31 -26
358 0 358 0 31 26 c31 25 31 27 31 120 0 87 -2 97 -25 119 l-24 25 -371 0
-371 0 -24 -25z m256 -24 c34 -34 39 -44 39 -86 0 -85 -54 -139 -141 -139
-104 0 -169 103 -121 192 26 49 68 72 131 72 49 0 57 -3 92 -39z"/>
</g>
</svg>
