<?xml version="1.0" standalone="no"?>
<!DOCTYPE svg PUBLIC "-//W3C//DTD SVG 20010904//EN"
 "http://www.w3.org/TR/2001/REC-SVG-20010904/DTD/svg10.dtd">
<svg version="1.0" xmlns="http://www.w3.org/2000/svg"
 width="256.000000pt" height="264.000000pt" viewBox="0 0 256.000000 264.000000"
 preserveAspectRatio="xMidYMid meet">
<metadata>
Created by potrace 1.14, written by Peter Selinger 2001-2017
</metadata>
<g transform="translate(0.000000,264.000000) scale(0.100000,-0.100000)"
fill="#000000" stroke="none">
<path d="M1175 1928 c-52 -41 -55 -62 -55 -380 l0 -293 -50 -43 c-28 -24 -60
-62 -72 -85 -28 -56 -36 -160 -15 -221 54 -159 241 -232 394 -156 174 87 208
323 65 453 -23 20 -46 37 -52 37 -5 0 -10 125 -12 321 l-3 321 -37 34 c-32 29
-45 34 -87 34 -34 0 -56 -6 -76 -22z m119 -70 c14 -19 16 -69 16 -339 l0 -317
29 -11 c15 -7 42 -27 59 -44 83 -86 83 -217 0 -297 -52 -49 -93 -63 -169 -58
-214 15 -259 311 -62 401 l23 10 0 316 c0 350 2 361 60 361 18 0 34 -8 44 -22z"/>
<path d="M1218 1364 l-3 -198 -32 -8 c-39 -10 -90 -69 -104 -120 -18 -70 23
-158 92 -193 15 -8 52 -15 82 -15 127 0 206 130 151 247 -18 37 -71 83 -97 83
-15 0 -17 22 -19 198 l-3 197 -32 3 -33 3 -2 -197z"/>
</g>
</svg>
